<svg xmlns="http://www.w3.org/2000/svg" width="24" height="24" viewBox="0 0 24 24"><defs><style>.a{fill:none;}.b{fill:#ee6665;}</style></defs><rect class="a" width="24" height="24"/><path class="b" d="M23.938,21.83l-4.968-4.968a10.308,10.308,0,0,0,2.108-6.323A10.474,10.474,0,0,0,10.539,0,10.474,10.474,0,0,0,0,10.539,10.474,10.474,0,0,0,10.539,21.077a10.308,10.308,0,0,0,6.323-2.108l4.968,4.968ZM3.011,10.539a7.454,7.454,0,0,1,7.528-7.528,7.454,7.454,0,0,1,7.528,7.528,7.454,7.454,0,0,1-7.528,7.528A7.454,7.454,0,0,1,3.011,10.539Z" transform="translate(0)"/></svg>